<?xml version="1.0" encoding="utf-8"?>
<!-- Generator: Adobe Illustrator 25.0.0, SVG Export Plug-In . SVG Version: 6.00 Build 0)  -->
<svg version="1.1" xmlns="http://www.w3.org/2000/svg" xmlns:xlink="http://www.w3.org/1999/xlink" x="0px" y="0px"
	 viewBox="0 0 440.3 140.3" style="enable-background:new 0 0 440.3 140.3;" xml:space="preserve">
<style type="text/css">
	.st0{clip-path:url(#SVGID_2_);}
	.st1{fill:#C19D78;}
	.st2{fill:#008086;}
	.st3{display:none;}
	.st4{display:inline;}
	.st5{clip-path:url(#SVGID_4_);}
	.st6{fill:#00ABC0;}
	.st7{display:inline;fill:url(#);}
	.st8{clip-path:url(#SVGID_6_);}
	.st9{fill:none;}
	.st10{clip-path:url(#SVGID_8_);}
	.st11{clip-path:url(#SVGID_10_);}
	.st12{clip-path:url(#SVGID_12_);}
	.st13{clip-path:url(#SVGID_14_);}
	.st14{clip-path:url(#SVGID_16_);}
	.st15{clip-path:url(#SVGID_18_);}
	.st16{clip-path:url(#SVGID_20_);}
	.st17{clip-path:url(#SVGID_22_);fill:#C19D78;}
	.st18{clip-path:url(#SVGID_22_);fill:#008086;}
	.st19{clip-path:url(#SVGID_24_);}
	.st20{clip-path:url(#SVGID_26_);}
	.st21{clip-path:url(#SVGID_28_);}
	.st22{clip-path:url(#SVGID_30_);}
	.st23{clip-path:url(#SVGID_32_);}
	.st24{clip-path:url(#SVGID_34_);}
	.st25{clip-path:url(#SVGID_36_);}
	.st26{clip-path:url(#SVGID_38_);}
	.st27{clip-path:url(#SVGID_40_);}
	.st28{clip-path:url(#SVGID_42_);}
	.st29{clip-path:url(#SVGID_44_);}
	.st30{clip-path:url(#SVGID_46_);}
	.st31{clip-path:url(#SVGID_48_);}
	.st32{clip-path:url(#SVGID_50_);}
	.st33{clip-path:url(#SVGID_52_);}
	.st34{clip-path:url(#SVGID_54_);}
	.st35{clip-path:url(#SVGID_56_);}
	.st36{clip-path:url(#SVGID_58_);}
	.st37{clip-path:url(#SVGID_60_);}
	.st38{clip-path:url(#SVGID_62_);}
	.st39{clip-path:url(#SVGID_64_);}
	.st40{clip-path:url(#SVGID_66_);}
	.st41{clip-path:url(#SVGID_68_);}
	.st42{clip-path:url(#SVGID_70_);}
	.st43{clip-path:url(#SVGID_72_);}
	.st44{clip-path:url(#SVGID_74_);}
	.st45{clip-path:url(#SVGID_76_);}
	.st46{clip-path:url(#SVGID_78_);}
	.st47{clip-path:url(#SVGID_80_);}
	.st48{clip-path:url(#SVGID_82_);}
	.st49{clip-path:url(#SVGID_84_);}
	.st50{clip-path:url(#SVGID_86_);}
	.st51{clip-path:url(#SVGID_88_);}
	.st52{clip-path:url(#SVGID_90_);}
	.st53{clip-path:url(#SVGID_92_);}
	.st54{clip-path:url(#SVGID_94_);}
	.st55{clip-path:url(#SVGID_96_);}
	.st56{clip-path:url(#SVGID_98_);}
	.st57{clip-path:url(#SVGID_100_);}
	.st58{clip-path:url(#SVGID_102_);}
	.st59{clip-path:url(#SVGID_104_);}
	.st60{clip-path:url(#SVGID_106_);}
	.st61{clip-path:url(#SVGID_108_);}
	.st62{clip-path:url(#SVGID_110_);}
	.st63{clip-path:url(#SVGID_112_);}
	.st64{clip-path:url(#SVGID_114_);}
	.st65{clip-path:url(#SVGID_116_);}
	.st66{clip-path:url(#SVGID_118_);}
	.st67{clip-path:url(#SVGID_120_);}
	.st68{clip-path:url(#SVGID_122_);}
	.st69{clip-path:url(#SVGID_124_);}
	.st70{clip-path:url(#SVGID_126_);}
	.st71{clip-path:url(#SVGID_128_);}
	.st72{clip-path:url(#SVGID_130_);}
	.st73{clip-path:url(#SVGID_132_);}
	.st74{clip-path:url(#SVGID_134_);}
	.st75{clip-path:url(#SVGID_136_);}
	.st76{clip-path:url(#SVGID_138_);}
	.st77{clip-path:url(#SVGID_140_);}
	.st78{clip-path:url(#SVGID_142_);}
	.st79{clip-path:url(#SVGID_144_);}
	.st80{clip-path:url(#SVGID_146_);}
	.st81{clip-path:url(#SVGID_148_);}
	.st82{clip-path:url(#SVGID_150_);}
	.st83{clip-path:url(#SVGID_152_);}
	.st84{clip-path:url(#SVGID_154_);}
	.st85{clip-path:url(#SVGID_156_);}
	.st86{clip-path:url(#SVGID_158_);}
	.st87{clip-path:url(#SVGID_160_);}
	.st88{clip-path:url(#SVGID_162_);}
	.st89{clip-path:url(#SVGID_164_);}
	.st90{clip-path:url(#SVGID_166_);}
	.st91{clip-path:url(#SVGID_168_);}
	.st92{clip-path:url(#SVGID_170_);}
	.st93{clip-path:url(#SVGID_172_);}
	.st94{clip-path:url(#SVGID_174_);}
	.st95{clip-path:url(#SVGID_176_);}
	.st96{clip-path:url(#SVGID_178_);}
	.st97{clip-path:url(#SVGID_180_);}
	.st98{clip-path:url(#SVGID_182_);}
	.st99{clip-path:url(#SVGID_184_);}
	.st100{clip-path:url(#SVGID_186_);}
	.st101{clip-path:url(#SVGID_188_);}
	.st102{clip-path:url(#SVGID_190_);}
	.st103{clip-path:url(#SVGID_192_);}
	.st104{clip-path:url(#SVGID_194_);}
	.st105{clip-path:url(#SVGID_196_);}
	.st106{clip-path:url(#SVGID_198_);}
	.st107{clip-path:url(#SVGID_200_);}
	.st108{clip-path:url(#SVGID_202_);}
	.st109{clip-path:url(#SVGID_204_);}
	.st110{clip-path:url(#SVGID_206_);}
	.st111{clip-path:url(#SVGID_208_);}
	.st112{clip-path:url(#SVGID_210_);}
	.st113{clip-path:url(#SVGID_212_);}
	.st114{clip-path:url(#SVGID_214_);}
	.st115{clip-path:url(#SVGID_216_);}
	.st116{clip-path:url(#SVGID_218_);}
	.st117{clip-path:url(#SVGID_220_);}
	.st118{clip-path:url(#SVGID_222_);}
	.st119{clip-path:url(#SVGID_224_);}
	.st120{clip-path:url(#SVGID_226_);}
	.st121{clip-path:url(#SVGID_228_);}
	.st122{clip-path:url(#SVGID_230_);}
	.st123{clip-path:url(#SVGID_232_);}
	.st124{clip-path:url(#SVGID_234_);}
	.st125{clip-path:url(#SVGID_236_);}
	.st126{clip-path:url(#SVGID_238_);}
	.st127{clip-path:url(#SVGID_240_);}
	.st128{clip-path:url(#SVGID_242_);}
	.st129{clip-path:url(#SVGID_244_);}
	.st130{clip-path:url(#SVGID_246_);}
	.st131{clip-path:url(#SVGID_248_);}
	.st132{clip-path:url(#SVGID_250_);}
	.st133{clip-path:url(#SVGID_252_);}
	.st134{clip-path:url(#SVGID_254_);}
	.st135{clip-path:url(#SVGID_256_);}
	.st136{clip-path:url(#SVGID_258_);}
	.st137{clip-path:url(#SVGID_260_);}
	.st138{clip-path:url(#SVGID_262_);}
	.st139{clip-path:url(#SVGID_264_);}
	.st140{clip-path:url(#SVGID_266_);}
	.st141{clip-path:url(#SVGID_268_);}
	.st142{clip-path:url(#SVGID_270_);}
	.st143{clip-path:url(#SVGID_272_);}
	.st144{clip-path:url(#SVGID_274_);}
	.st145{clip-path:url(#SVGID_276_);}
	.st146{clip-path:url(#SVGID_278_);}
	.st147{clip-path:url(#SVGID_280_);}
	.st148{clip-path:url(#SVGID_282_);}
	.st149{clip-path:url(#SVGID_284_);}
	.st150{clip-path:url(#SVGID_286_);}
	.st151{clip-path:url(#SVGID_288_);}
	.st152{clip-path:url(#SVGID_290_);}
	.st153{clip-path:url(#SVGID_292_);}
	.st154{clip-path:url(#SVGID_294_);}
	.st155{clip-path:url(#SVGID_296_);}
	.st156{clip-path:url(#SVGID_298_);}
	.st157{clip-path:url(#SVGID_300_);}
	.st158{clip-path:url(#SVGID_302_);}
	.st159{clip-path:url(#SVGID_304_);}
	.st160{clip-path:url(#SVGID_306_);}
	.st161{clip-path:url(#SVGID_308_);}
	.st162{clip-path:url(#SVGID_310_);}
	.st163{clip-path:url(#SVGID_312_);}
	.st164{clip-path:url(#SVGID_314_);}
	.st165{clip-path:url(#SVGID_316_);}
	.st166{clip-path:url(#SVGID_318_);}
	.st167{fill:#00B5A4;}
	.st168{fill:#C29979;}
	.st169{fill:#FFFFFF;}
</style>
<g id="Layer_1">
</g>
<g id="Layer_1_copy" class="st3">
</g>
<g id="Layer_1_copy_2">
</g>
<g id="Layer_4">
	<g>
		<g>
			<path class="st2" d="M395.5,50.2l32.2,33.1c0.2,0.2,0.6,0.1,0.6-0.3V72.6c0-0.1,0-0.2-0.1-0.3l-13.7-13.9
				c-0.4-0.4-0.1-1.2,0.5-1.2l12.7,0.1c0.3,0,0.6-0.3,0.6-0.6v-7c0-0.3-0.3-0.6-0.6-0.6L396,49C395.4,49,395,49.8,395.5,50.2"/>
			<path class="st167" d="M428,95.5l-23.3-22.9c-0.4-0.4-1.2-0.1-1.2,0.5l-0.2,41.4c0,0.6,0.8,0.9,1.2,0.5l6.8-6.6
				c0.1-0.1,0.2-0.3,0.2-0.5l0.1-15.6c0-0.6,0.8-0.9,1.2-0.5l11.9,11.7c0.3,0.3,0.3,0.7,0,1l-13.2,12.8v0l-9.1,9
				c-0.4,0.4-0.1,1,0.4,1c6.4,0,12.5-2.5,17-6.9l0.5-0.4c5.2-5,8.1-11.9,8.1-19.1v-4.4C428.4,96,428.2,95.7,428,95.5"/>
			<path class="st167" d="M374.3,39.1l42.4,0.2c0.6,0,1-0.8,0.5-1.2l-6.8-6.6c-0.1-0.1-0.3-0.2-0.5-0.2l-16-0.1
				c-0.6,0-0.9-0.8-0.5-1.2l12-11.6c0.3-0.3,0.7-0.3,1,0l13.1,12.9h0l8.2,8c0.3,0.3,0.7,0.1,0.7-0.3c0-6.5-2.6-12.7-7.2-17.3
				l-0.5-0.4c-5.1-5-11.9-7.8-19.1-7.8H400c-0.6,0-1.2,0.2-1.6,0.7l-24.6,23.8C373.3,38.3,373.6,39.1,374.3,39.1"/>
			<path class="st168" d="M356,70.9l16-15.6c0.2-0.2,0.6-0.2,0.8,0l14.2,13.8c0.2,0.2,0.2,0.6,0,0.8l-16,15.6
				c-0.2,0.2-0.6,0.2-0.8,0L356,71.7C355.7,71.5,355.7,71.1,356,70.9 M372,46.7l-24.7,24.1c-0.2,0.2-0.2,0.6,0,0.8L370.1,94
				c0.2,0.2,0.6,0.2,0.8,0l24.7-24.1c0.2-0.2,0.2-0.6,0-0.8l-22.9-22.3C372.5,46.5,372.2,46.5,372,46.7"/>
			<path class="st2" d="M392.3,94.4l-33.1,32.2c-0.2,0.2-0.1,0.6,0.3,0.6h10.5c0.1,0,0.2,0,0.3-0.1l13.9-13.7
				c0.4-0.4,1.2-0.1,1.2,0.5l-0.1,12.7c0,0.3,0.3,0.6,0.6,0.6h7c0.3,0,0.6-0.3,0.6-0.6l0-31.8C393.5,94.3,392.7,93.9,392.3,94.4"/>
			<path class="st2" d="M347.4,90.5l-32.2-33.1c-0.2-0.2-0.6-0.1-0.6,0.3v10.5c0,0.1,0,0.2,0.1,0.3l13.7,13.9
				c0.4,0.4,0.1,1.2-0.5,1.2l-12.7-0.1c-0.3,0-0.6,0.3-0.6,0.6v7c0,0.3,0.3,0.6,0.6,0.6l31.8,0C347.5,91.7,347.8,91,347.4,90.5"/>
			<path class="st167" d="M314.9,45.3l23.3,22.9c0.4,0.4,1.2,0.1,1.2-0.5l0.2-41.4c0-0.6-0.8-0.9-1.2-0.5l-6.8,6.6
				c-0.1,0.1-0.2,0.3-0.2,0.5l-0.1,15.6c0,0.6-0.8,0.9-1.2,0.5l-11.9-11.7c-0.3-0.3-0.3-0.7,0-1l13.2-12.8v0l9.1-9
				c0.4-0.4,0.1-1-0.4-1c-6.4,0-12.5,2.5-17,6.9l-0.5,0.4c-5.2,5-8.1,11.9-8.1,19.1v4.4C314.6,44.7,314.7,45,314.9,45.3"/>
			<path class="st167" d="M368.7,101.6l-42.4-0.2c-0.6,0-1,0.8-0.5,1.2l6.8,6.6c0.1,0.1,0.3,0.2,0.5,0.2l16,0.1
				c0.6,0,0.9,0.8,0.5,1.2l-12,11.6c-0.3,0.3-0.7,0.3-1,0l-13.1-12.9h0l-8.2-8c-0.3-0.3-0.7-0.1-0.7,0.3c0,6.5,2.6,12.7,7.2,17.3
				l0.5,0.4c5.1,5,11.9,7.8,19.1,7.8h1.6c0.6,0,1.2-0.2,1.6-0.7l24.6-23.8C369.6,102.4,369.3,101.6,368.7,101.6"/>
			<path class="st2" d="M350.6,46.4l33.1-32.2c0.2-0.2,0.1-0.6-0.3-0.6H373c-0.1,0-0.2,0-0.3,0.1l-13.9,13.7
				c-0.4,0.4-1.2,0.1-1.2-0.5l0.1-12.7c0-0.3-0.3-0.6-0.6-0.6h-7c-0.3,0-0.6,0.3-0.6,0.6l0,31.8C349.4,46.5,350.2,46.8,350.6,46.4"
				/>
		</g>
		<g>
			<path class="st2" d="M90.6,62.4L90.6,62.4C90.6,62.3,90.6,62.4,90.6,62.4h35.3h14V25h-7.7v29.8h-6.4h-1.2h-0.1
				c-1,0-1.8,0-2.3-0.1c-0.5-0.1-0.9-0.3-1.2-0.6c-0.3-0.3-0.6-0.9-0.7-1.6c-0.6-3.6-1.6-6.6-2.8-9c-1.3-2.4-2.9-4.2-4.9-5.6
				c-3.5-2.3-7.5-3.5-12.2-3.5c-2.5,0-5,0.3-7.6,1l0.9,7.1c1.9-0.5,3.8-0.8,5.7-0.8c3.5,0,6.4,0.8,8.7,2.4c1.2,0.8,2.1,2,2.8,3.5
				c0.7,1.5,1.3,3.6,1.8,6.1c0,0.2,0.1,0.4,0.1,0.6c0,0.2,0.1,0.3,0.1,0.5H90.7c0,0,0,0,0,0v0c-2.9,0-5-0.6-6.2-1.9
				c-1.1-1.2-1.6-2.7-1.6-4.6V37.9h-7.7v10.4c0,2.2-0.6,3.8-1.8,4.9c-1.2,1.1-2.7,1.6-4.6,1.6H58.6H48.4h0H38.2h-5.3V37.9h-7.7v24.4
				c0,1.4-0.2,2.4-0.7,3s-1.2,0.9-2.3,0.9c-0.9,0-2.1-0.2-3.7-0.6l-1.5,6.6c2.3,0.7,4.4,1.1,6.4,1.1c3,0,5.3-0.9,7-2.8
				c1.6-1.9,2.4-4.6,2.4-8.2h5.3h10.2h0h10.2h10.2c2.4,0,4.5-0.4,6.3-1.2c1.8-0.8,3.4-1.9,4.6-3.3C81.6,60.9,85.2,62.4,90.6,62.4z"
				/>
			<rect x="145.3" y="25" class="st2" width="7.7" height="37.3"/>
			<path class="st2" d="M193.5,55.3c-1.6-0.1-3.1-0.2-4.6-0.2c-2.1,0-4.1,0.1-5.9,0.4l-1.3,0.1c-1.8,0-3.3-0.4-4.5-1.1
				s-1.7-2-1.7-3.7c0-1.9,0.6-3.3,1.9-4.4c1.2-1.1,2.8-1.6,4.7-1.6c1.6,0,3.3,0.4,4.9,1.2l3.6-6.3c-2.6-1.4-5.4-2.1-8.4-2.1
				c-2.4,0-4.7,0.5-6.8,1.5c-2.1,1-3.7,2.4-5,4.3c-1.2,1.9-1.9,4-1.9,6.5c0,3.9,1.4,6.6,4.3,8.2c-1,0.4-2.2,0.8-3.4,1.4l2,6.5
				c3.8-1.4,7.1-2.4,9.9-2.9c2.8-0.6,5.8-0.8,8.8-0.8c0.6,0,1.7,0,3.3,0.1V55.3z"/>
			<rect x="198.9" y="25" class="st2" width="7.7" height="37.3"/>
			<path class="st2" d="M274.9,37.9h-7.7v16.9h-6.4h-10.2c0,0,0,0,0,0v0h-10.2h-10.2h-5.3V37.9h-7.7v24.4c0,1.4-0.2,2.4-0.7,3
				c-0.5,0.6-1.2,0.9-2.3,0.9c-0.9,0-2.1-0.2-3.7-0.6l-1.5,6.6c2.3,0.7,4.4,1.1,6.4,1.1c3,0,5.3-0.9,7-2.8c1.6-1.9,2.4-4.6,2.4-8.2
				h5.3h10.2h10.2v0c0,0,0,0,0,0h10.2h14V37.9z"/>
			<path class="st2" d="M289.5,75.1c-0.8,0-1.5-0.2-2-0.7c-0.5-0.5-0.8-1.1-0.8-1.8c0-0.7,0.2-1.2,0.7-1.6c0.5-0.4,1.1-0.5,1.8-0.5
				c0.6,0,1.2,0.1,1.9,0.4l1.6-3.1c-1.3-0.6-2.5-0.9-3.8-0.9c-1.7,0-3.1,0.5-4.2,1.5c-1.2,1-1.7,2.2-1.7,3.7c0,1.3,0.4,2.3,1.2,3
				H283v3.2h10.6v-3.2H289.5z"/>
			<rect x="284.3" y="25" class="st2" width="7.7" height="37.3"/>
			<rect x="25" y="94.2" class="st2" width="2.9" height="22.5"/>
			<polygon class="st2" points="31.8,96.9 38.9,96.9 38.9,116.8 41.8,116.8 41.8,96.9 49,96.9 49,94.2 31.8,94.2 			"/>
			<polygon class="st2" points="68.8,104.2 55.8,104.2 55.8,94.2 52.9,94.2 52.9,116.8 55.8,116.8 55.8,106.8 68.8,106.8 
				68.8,116.8 71.7,116.8 71.7,94.2 68.8,94.2 			"/>
			<path class="st2" d="M94.9,101.3c0-4.2-3.1-7.1-7.5-7.1h-9.6v22.5h2.9v-8.5h5.5c0.2,0,0.5,0,0.7,0l5,8.5h3.4l-5.4-8.9
				C92.9,107.1,94.9,104.6,94.9,101.3z M80.8,105.8v-8.9h6.5c2.6,0,4.7,1.9,4.7,4.5c0,2.7-2,4.5-4.6,4.5H80.8z"/>
			<path class="st2" d="M106.2,94.2l-9.5,22.5h3.1l2.1-5.1h11.4l2.1,5.1h3.1L109,94.2H106.2z M102.9,109.2l4.5-10.8l0.1-0.4h0
				l0.1,0.4l4.5,10.8H102.9z"/>
			<path class="st2" d="M128.5,94.2l-9.5,22.5h3.1l2.1-5.1h11.4l2.1,5.1h3.1l-9.5-22.5H128.5z M125.2,109.2l4.5-10.8l0.1-0.4h0
				l0.1,0.4l4.5,10.8H125.2z"/>
			<path class="st2" d="M159.2,94.2l-9.5,22.5h3.1l2.1-5.1h11.4l2.1,5.1h3.1L162,94.2H159.2z M155.9,109.2l4.5-10.8l0.1-0.4h0
				l0.1,0.4l4.5,10.8H155.9z"/>
			<polygon class="st2" points="177.7,94.2 174.8,94.2 174.8,116.8 188.7,116.8 188.7,114.1 177.7,114.1 			"/>
			<polygon class="st2" points="209.6,94.2 206.2,94.2 195.3,107.6 195.3,94.2 192.4,94.2 192.4,116.8 195.3,116.8 195.3,111.5 
				199.5,106.3 207.4,116.8 210.9,116.8 201.4,104.2 			"/>
			<polygon class="st2" points="230.2,104.2 217.2,104.2 217.2,94.2 214.3,94.2 214.3,116.8 217.2,116.8 217.2,106.8 230.2,106.8 
				230.2,116.8 233.2,116.8 233.2,94.2 230.2,94.2 			"/>
			<path class="st2" d="M246,94.2l-9.5,22.5h3.1l2.1-5.1h11.4l2.1,5.1h3.1l-9.5-22.5H246z M242.8,109.2l4.5-10.8l0.1-0.4h0l0.1,0.4
				l4.5,10.8H242.8z"/>
			<rect x="261.6" y="94.2" class="st2" width="2.9" height="22.5"/>
			<path class="st2" d="M287.7,101.3c0-4.2-3.1-7.1-7.5-7.1h-9.6v22.5h2.9v-8.5h5.5c0.2,0,0.5,0,0.7,0l5,8.5h3.4l-5.4-8.9
				C285.7,107.1,287.7,104.6,287.7,101.3z M273.6,105.8v-8.9h6.5c2.6,0,4.7,1.9,4.7,4.5c0,2.7-2,4.5-4.6,4.5H273.6z"/>
			
				<rect x="248.8" y="35" transform="matrix(0.7071 -0.7071 0.7071 0.7071 46.4483 190.3049)" class="st2" width="8.2" height="8.2"/>
			
				<rect x="115.1" y="25.7" transform="matrix(0.7071 -0.7071 0.7071 0.7071 13.8444 93.0076)" class="st2" width="8.2" height="8.2"/>
			
				<rect x="64.6" y="68.5" transform="matrix(0.7071 -0.7071 0.7071 0.7071 -31.1859 69.869)" class="st2" width="8.2" height="8.2"/>
			
				<rect x="50.3" y="68.5" transform="matrix(0.7071 -0.7071 0.7071 0.7071 -35.3779 59.7469)" class="st2" width="8.2" height="8.2"/>
			
				<rect x="242.2" y="25.7" transform="matrix(0.7071 -0.7071 0.7071 0.7071 51.0902 182.9243)" class="st2" width="8.2" height="8.2"/>
			
				<rect x="235.7" y="35" transform="matrix(0.7071 -0.7071 0.7071 0.7071 42.6139 181.0477)" class="st2" width="8.2" height="8.2"/>
		</g>
	</g>
</g>
<g id="Layer_5">
</g>
</svg>
