<svg xmlns="http://www.w3.org/2000/svg" width="410.46" height="282.74" viewBox="0 0 410.46 282.74"><g id="f1fd7ee4-13b2-4f73-9df2-a0f6af14b9bd" data-name="Layer 2"><g id="ec40a6a7-6885-4e56-a416-8c41a4aea1b4" data-name="Layer 1"><line x1="46.13" y1="37.5" x2="148.1" y2="96.92" fill="none" stroke="#c6c6c6" stroke-miterlimit="10" stroke-width="4"/><line x1="148.1" y1="96.92" x2="264.47" y2="123.56" fill="none" stroke="#c6c6c6" stroke-miterlimit="10" stroke-width="4"/><line x1="46.13" y1="37.5" x2="68.63" y2="242.83" fill="none" stroke="#c6c6c6" stroke-miterlimit="10" stroke-width="4"/><line x1="68.63" y1="242.83" x2="326.59" y2="234.39" fill="none" stroke="#c6c6c6" stroke-miterlimit="10" stroke-width="4"/><line x1="264.47" y1="123.56" x2="326.59" y2="234.39" fill="none" stroke="#c6c6c6" stroke-miterlimit="10" stroke-width="4"/><line x1="148.1" y1="96.92" x2="326.59" y2="234.39" fill="none" stroke="#c6c6c6" stroke-miterlimit="10" stroke-width="4"/><line x1="148.1" y1="96.92" x2="326.59" y2="234.39" fill="none" stroke="#c6c6c6" stroke-miterlimit="10" stroke-width="4"/><line x1="148.1" y1="96.92" x2="326.59" y2="234.39" fill="none" stroke="#c6c6c6" stroke-miterlimit="10" stroke-width="4"/><line x1="148.1" y1="96.92" x2="68.63" y2="242.83" fill="none" stroke="#c6c6c6" stroke-miterlimit="10" stroke-width="4"/><line x1="264.47" y1="123.56" x2="68.63" y2="242.83" fill="none" stroke="#c6c6c6" stroke-miterlimit="10" stroke-width="4"/><line x1="46.13" y1="37.5" x2="256.17" y2="62.5" fill="none" stroke="#c6c6c6" stroke-miterlimit="10" stroke-width="4"/><line x1="148.1" y1="96.92" x2="256.17" y2="62.5" fill="none" stroke="#c6c6c6" stroke-miterlimit="10" stroke-width="4"/><line x1="264.47" y1="123.56" x2="256.17" y2="62.5" fill="none" stroke="#c6c6c6" stroke-miterlimit="10" stroke-width="4"/><line x1="256.17" y1="62.5" x2="326.59" y2="62.5" fill="none" stroke="#c6c6c6" stroke-miterlimit="10" stroke-width="4"/><line x1="264.47" y1="123.56" x2="326.59" y2="62.5" fill="none" stroke="#c6c6c6" stroke-miterlimit="10" stroke-width="4"/><line x1="326.59" y1="234.39" x2="326.59" y2="62.5" fill="none" stroke="#c6c6c6" stroke-miterlimit="10" stroke-width="4"/><circle cx="256.17" cy="62.5" r="10" fill="#02c39a"/><circle cx="46.13" cy="37.5" r="37.5" fill="#05668d"/><circle cx="264.47" cy="123.56" r="17.5" fill="#028090"/><circle cx="148.1" cy="96.92" r="12.5" fill="#ffa69e"/><circle cx="68.63" cy="242.83" r="22.5" fill="#00a896"/><circle cx="326.59" cy="234.39" r="20" fill="#f0f3bd"/><circle cx="326.59" cy="62.5" r="22.5" fill="#5e6472"/><path d="M370.84,170.37c4,11.94,17.63,21.56,35.78,21.56v41.41c-22.09,0-32.95-5-43.95-18-5.79,11.62-12,16.3-20.83,17.43-22.58,1.77-35.69-5.82-51.35-22.16-6.08,2.32-12.95,4.06-19.1,6.8,5.79,47.63,3.22,81.41-6.24,95.44h-4.73c-1.35-32.35-4.6-54.86-6.92-72.32-4.34-34.47,5.5-59.44,34.8-67.6,14.6-26.28,36.72-47.46,55.63-44.72,18.76,2.73,21.4,20.13,26.93,42.19Zm-72.87,6c17.36,14.41,66.7,26.72,65.77,16.79-2.4-17.73-11.19-28.45-26.13-31.19-12.61-2.31-29.46,4.93-39.64,14.41Z" transform="translate(-252.52 -30.07)" fill="#000"/><path d="M448.51,164c0,17.33-1.72,27.62,21.38,27.89v41.41c-18.43,0-26.6-11.48-31.45-23.69-3.78,11.56-14,23.68-31.79,23.68l-13.75-7.65V199.59l13.75-7.66c7.42,0,21.24.71,21.24-14.42v-121l17-26.4h3.63V164Z" transform="translate(-252.52 -30.07)" fill="#000"/><path d="M469.62,191.93h36.3v41.4h-36.3l-13.75-7.65V199.59Z" transform="translate(-252.52 -30.07)" fill="#000"/><path d="M504.27,191.93h36.3v41.4h-36.3l-13.75-7.65V199.59Z" transform="translate(-252.52 -30.07)" fill="#000"/><path d="M595,61.29c0-33.84,32.72-35.19,32.72.62,0,25.93-23.37,48.7-42.45,38.54l-12-7.84v-.9c29-.67,48-10.23,51.49-20.59C608.16,85.56,595,74.63,595,61.3Zm1.95-2.47c0,8.31,17.11,11.37,28.33,2.9-3-16.81-28.33-16.15-28.33-2.9Z" transform="translate(-252.52 -30.07)" fill="#000"/><path d="M631.79,128c21.34,0,31.18,23.75,31.18,48.7,0,27.58-12,56.62-33.86,56.62-26.38,0-47.38-19-51.14-32.83-7.27,19.62-17.8,32.83-39.05,32.83l-13.75-7.66V199.58l13.75-7.65c22.66,0,33.22-5.2,42.62-20.09C599.65,143.11,614.86,128,631.79,128Zm-42.12,48.4c17.74,15.52,66.73,25.44,66.3,16.77-2.37-19.48-15.42-31.52-31.63-31.52-10.69,0-23.39,4.87-34.66,14.75Z" transform="translate(-252.52 -30.07)" fill="#000"/></g></g></svg>